<?xml version="1.0" standalone="no"?>
<!DOCTYPE svg PUBLIC "-//W3C//DTD SVG 20010904//EN"
 "http://www.w3.org/TR/2001/REC-SVG-20010904/DTD/svg10.dtd">
<svg version="1.0" xmlns="http://www.w3.org/2000/svg"
 width="512.000000pt" height="512.000000pt" viewBox="0 0 512.000000 512.000000"
 preserveAspectRatio="xMidYMid meet">
<metadata>
Created by potrace 1.14, written by Peter Selinger 2001-2017
</metadata>
<g transform="translate(0.000000,512.000000) scale(0.100000,-0.100000)"
fill="#000000" stroke="none">
<path d="M1253 4351 c-81 -28 -163 -82 -199 -131 -56 -76 -79 -151 -78 -255 2
-97 13 -136 65 -217 19 -29 28 -54 25 -65 -4 -10 -32 -36 -63 -58 -128 -91
-353 -334 -353 -383 0 -5 -6 -15 -14 -21 -27 -22 -80 -146 -137 -316 -99 -298
-114 -379 -114 -625 0 -155 4 -201 23 -285 34 -152 46 -194 80 -268 18 -38 32
-72 32 -77 0 -56 187 -324 307 -441 118 -115 271 -220 413 -283 36 -16 85 -38
110 -49 64 -30 141 -56 167 -57 12 0 32 -4 45 -9 13 -4 48 -15 78 -24 30 -8
80 -22 111 -31 31 -9 70 -16 88 -16 18 0 40 -4 49 -9 41 -22 462 -53 717 -54
309 0 731 40 868 82 35 11 131 37 187 51 92 22 156 44 196 66 23 13 48 24 54
24 24 0 148 64 261 135 124 78 254 199 352 328 123 162 169 246 221 402 68
203 81 283 81 500 0 261 -31 422 -145 740 -31 89 -56 141 -113 235 -99 164
-141 211 -324 359 -57 46 -103 86 -103 90 0 3 10 22 22 41 50 83 60 107 72
177 11 61 11 85 0 139 -18 84 -57 163 -103 208 -42 40 -134 88 -205 105 -62
15 -166 -1 -244 -37 -65 -30 -140 -113 -182 -200 -17 -35 -37 -65 -44 -68 -7
-3 -37 4 -67 15 -88 32 -209 68 -284 85 -38 9 -86 21 -105 26 -108 28 -178 35
-395 35 -180 0 -247 -4 -310 -18 -44 -9 -100 -21 -125 -27 -44 -9 -102 -25
-205 -56 -27 -8 -63 -19 -80 -23 -16 -5 -50 -16 -74 -25 -65 -24 -78 -21 -85
18 -7 35 -66 133 -106 174 -31 33 -119 87 -155 97 -65 16 -159 15 -212 -4z
m216 -125 c37 -24 91 -85 119 -134 22 -40 26 -113 8 -156 -22 -52 -20 -73 7
-82 31 -11 40 -8 142 41 50 24 131 55 180 69 50 15 113 33 141 41 28 8 60 15
72 15 11 0 24 5 27 10 3 6 28 10 54 10 27 0 68 7 92 17 60 22 512 25 574 4 22
-8 67 -17 100 -22 33 -4 85 -14 115 -22 30 -9 91 -25 135 -36 96 -25 117 -33
220 -82 117 -56 133 -61 157 -48 17 9 19 17 13 47 -3 21 -9 66 -11 102 -5 62
-4 67 34 126 55 85 116 124 194 124 108 0 185 -50 232 -150 26 -55 30 -77 30
-140 -1 -129 -52 -235 -130 -270 -68 -30 -58 -59 34 -103 72 -35 128 -79 300
-240 83 -77 225 -312 265 -437 100 -316 133 -565 106 -794 -36 -311 -139 -525
-353 -738 -90 -89 -217 -198 -230 -198 -4 0 -22 -11 -39 -24 -49 -36 -123 -75
-206 -107 -42 -17 -99 -41 -127 -54 -28 -14 -58 -25 -67 -25 -18 0 -197 -43
-267 -64 -149 -45 -229 -58 -535 -86 -55 -5 -163 -9 -240 -9 -225 0 -579 35
-700 69 -152 42 -245 66 -315 81 -30 6 -90 27 -132 45 -43 19 -81 34 -85 34
-4 1 -26 9 -48 20 -22 11 -43 19 -47 20 -7 0 -83 44 -153 89 -69 44 -187 145
-272 234 -131 137 -177 206 -248 374 -36 84 -52 152 -84 354 -25 156 -6 329
69 635 41 166 92 283 183 422 65 99 100 141 178 212 113 103 203 171 250 190
81 32 91 70 26 101 -76 37 -127 144 -127 269 0 117 49 206 143 260 70 40 158
42 216 6z"/>
<path d="M1975 3021 c-11 -5 -51 -11 -90 -15 -120 -12 -195 -41 -195 -77 0
-22 53 -35 108 -25 20 3 92 14 159 23 88 13 128 23 140 36 17 18 17 19 -12 43
-30 24 -72 30 -110 15z"/>
<path d="M3134 3005 c-10 -7 -15 -19 -11 -28 8 -21 107 -56 187 -66 37 -5 76
-14 88 -20 32 -17 126 -25 150 -12 25 13 28 33 8 50 -18 15 -115 51 -138 51
-10 0 -37 6 -60 14 -62 20 -202 27 -224 11z"/>
<path d="M1855 2678 c-133 -45 -210 -121 -240 -238 -16 -62 -16 -68 1 -120 26
-78 58 -126 105 -156 81 -51 162 -66 233 -45 17 5 50 15 74 21 55 14 100 55
134 121 55 108 63 216 22 288 -32 56 -73 101 -91 101 -7 0 -21 4 -31 9 -20 10
-129 31 -158 30 -10 0 -32 -5 -49 -11z m166 -108 c22 -12 33 -45 22 -63 -15
-27 -71 -85 -97 -102 -35 -23 -109 -13 -142 20 -23 23 -23 25 -8 69 19 57 56
94 97 98 36 4 100 -8 128 -22z m9 -283 c0 -44 -128 -83 -196 -60 -41 14 -78
42 -68 52 3 3 60 9 127 12 67 3 125 6 130 7 4 1 7 -4 7 -11z"/>
<path d="M3205 2654 c-66 -23 -137 -83 -165 -138 -20 -41 -24 -64 -23 -130 0
-97 18 -138 90 -208 84 -81 172 -104 295 -76 66 16 122 70 167 162 33 69 38
114 20 181 -26 101 -65 145 -188 212 -30 17 -144 15 -196 -3z m150 -95 c55
-29 95 -69 95 -94 0 -12 -20 -40 -45 -65 -42 -41 -50 -45 -96 -45 -46 0 -54 4
-85 37 -54 59 -46 116 24 163 45 30 56 31 107 4z m-7 -317 c28 2 37 -1 40 -14
7 -36 -140 -34 -173 2 -28 31 -10 40 46 24 28 -9 67 -14 87 -12z"/>
<path d="M1237 2079 c-17 -10 -85 -142 -102 -197 -9 -32 3 -79 23 -84 33 -8
49 3 67 45 10 23 31 69 46 102 41 92 43 101 20 124 -24 24 -29 25 -54 10z"/>
<path d="M1444 1998 c-47 -81 -75 -148 -72 -169 4 -31 31 -45 64 -34 22 8 32
25 56 90 35 97 35 139 -3 143 -21 2 -30 -4 -45 -30z"/>
<path d="M1672 2018 c-17 -23 -72 -162 -72 -185 0 -12 9 -27 21 -33 41 -22 75
24 113 156 15 50 -33 97 -62 62z"/>
<path d="M3597 2006 c-32 -30 -87 -144 -94 -195 -9 -69 58 -86 88 -21 9 19 33
69 53 111 42 87 42 90 18 112 -25 23 -34 21 -65 -7z"/>
<path d="M4014 2002 c-17 -11 -33 -45 -60 -128 -28 -88 -30 -107 -8 -125 20
-17 41 -4 75 45 49 73 67 178 34 202 -21 16 -26 17 -41 6z"/>
<path d="M3807 1986 c-16 -13 -43 -73 -68 -151 -5 -16 -7 -42 -3 -57 4 -23 11
-28 35 -28 33 0 54 26 81 104 23 66 23 109 0 129 -22 20 -22 20 -45 3z"/>
<path d="M2559 1962 c-18 -15 -22 -28 -21 -65 2 -38 -2 -49 -24 -66 -35 -28
-51 -26 -103 9 -24 17 -48 30 -53 30 -17 0 -58 -33 -58 -47 0 -17 28 -62 54
-85 38 -35 148 -36 205 -2 27 16 30 15 77 -11 42 -23 57 -27 104 -22 67 6 157
42 171 69 16 29 2 66 -30 82 -28 15 -30 14 -59 -18 -41 -46 -89 -56 -114 -26
-10 12 -20 33 -23 46 -3 13 -7 36 -10 50 -7 33 -48 74 -73 74 -11 0 -30 -8
-43 -18z"/>
<path d="M2543 1543 c-19 -7 -16 -48 5 -66 28 -25 122 -23 156 4 32 25 34 47
4 53 -41 8 -153 15 -165 9z"/>
</g>
</svg>
